<svg version="1.2" xmlns="http://www.w3.org/2000/svg" viewBox="0 0 50 50" width="50" height="50">
	<title>button-left-svg</title>
	<style>
		.s0 { fill: #ff7629 } 
		.s1 { fill: #ffffff } 
	</style>
	<g id="Group 109">
		<g id="Rectangle 20">
			<path id="Layer" class="s0" d="m50 15c0-8.3-6.7-15-15-15h-20c-8.3 0-15 6.7-15 15v20c0 8.3 6.7 15 15 15h20c8.3 0 15-6.7 15-15z"/>
		</g>
		<path id="Vector" class="s1" d="m29.6 34.6c-0.5 0.5-1.3 0.5-1.8 0l-8.5-8.8c-0.4-0.5-0.4-1.1 0-1.6l8.5-8.8c0.5-0.5 1.3-0.5 1.8 0 0.5 0.5 0.5 1.4 0 1.9l-7.4 7.7 7.4 7.7c0.5 0.5 0.5 1.4 0 1.9z"/>
	</g>
</svg>